<svg width="22" height="30" viewBox="0 0 22 30" fill="none" xmlns="http://www.w3.org/2000/svg">
<path d="M19.8818 5.13687C18.0611 1.99483 14.8272 0.0752441 11.231 0.00188477C11.0775 -0.0012793 10.923 -0.0012793 10.7694 0.00188477C7.17326 0.0752441 3.93935 1.99483 2.11861 5.13687C0.257553 8.34851 0.206635 12.2063 1.98238 15.4566L9.42162 29.073C9.42496 29.079 9.4283 29.0851 9.43175 29.091C9.75906 29.6599 10.3454 29.9995 11.0003 29.9995C11.6552 29.9995 12.2415 29.6599 12.5687 29.091C12.5722 29.0851 12.5755 29.079 12.5789 29.073L20.0181 15.4566C21.7937 12.2063 21.7428 8.34851 19.8818 5.13687V5.13687ZM11.0002 13.5933C8.67396 13.5933 6.78144 11.7008 6.78144 9.37454C6.78144 7.04831 8.67396 5.15579 11.0002 5.15579C13.3264 5.15579 15.2189 7.04831 15.2189 9.37454C15.2189 11.7008 13.3265 13.5933 11.0002 13.5933Z" fill="#0DCA6F"/>
</svg>
