<svg width="36" height="36" viewBox="0 0 36 36" fill="none" xmlns="http://www.w3.org/2000/svg">
<path d="M33.1114 23.6299C30.9073 23.6299 28.7432 23.2852 26.6924 22.6074C25.6875 22.2647 24.4522 22.5791 23.8388 23.209L19.791 26.2647C15.0967 23.7589 12.205 20.8682 9.73341 16.2091L12.6992 12.2667C13.4697 11.4972 13.7461 10.3732 13.415 9.31847C12.7343 7.25691 12.3886 5.09381 12.3886 2.88881C12.3887 1.29591 11.0928 0 9.49997 0H2.88872C1.29591 0 0 1.29591 0 2.88872C0 21.1465 14.8536 36 33.1114 36C34.7042 36 36.0001 34.7041 36.0001 33.1113V26.5185C36 24.9258 34.7041 23.6299 33.1114 23.6299Z" fill="#0DCA6F"/>
</svg>
